<svg xmlns="http://www.w3.org/2000/svg"  viewBox="0 0 80 80" width="80px" height="80px" baseProfile="basic"><path fill="#bae0bd" stroke="#5e9c76" stroke-miterlimit="10" d="M19.373,19.543h-1.159L31.92,5.837 c4.466-4.449,11.695-4.449,16.161,0l13.706,13.706h-1.159c-2.728,0-5.302,1.057-7.228,3L41.807,34.085 c-1.006,1.006-2.608,1.006-3.614,0L26.601,22.543C24.674,20.6,22.1,19.543,19.373,19.543z"/><path fill="#bae0bd" stroke="#5e9c76" stroke-miterlimit="10" d="M60.627,60.457h1.159L48.08,74.163 c-4.466,4.449-11.695,4.449-16.161,0L18.213,60.457h1.159c2.728,0,5.302-1.057,7.228-3l11.592-11.541 c1.006-1.006,2.608-1.006,3.614,0l11.592,11.541C55.326,59.4,57.9,60.457,60.627,60.457z"/><path fill="#bae0bd" stroke="#5e9c76" stroke-miterlimit="10" d="M74.163,48.08l-8.967,8.967h-4.569 c-1.824,0-3.529-0.716-4.824-1.995L44.211,43.495c-2.318-2.318-6.103-2.318-8.421,0L24.197,55.053 c-1.296,1.279-3,1.995-4.824,1.995h-4.569L5.837,48.08c-4.449-4.466-4.449-11.695,0-16.161l8.967-8.967h4.569 c1.824,0,3.529,0.716,4.824,1.995l11.592,11.558c1.159,1.159,2.693,1.739,4.211,1.739c1.517,0,3.051-0.58,4.211-1.739 l11.592-11.558c1.296-1.279,3-1.995,4.824-1.995h4.569l8.967,8.967C78.612,36.386,78.612,43.614,74.163,48.08z"/></svg>
